<svg width="390" height="844" viewBox="0 0 390 844" fill="none" xmlns="http://www.w3.org/2000/svg">
<path d="M390 844H0V0H390V844Z" fill="#1E1F29"/>
<mask id="mask0_3_5" style="mask-type:luminance" maskUnits="userSpaceOnUse" x="182" y="270" width="112" height="92">
<path d="M182.333 270H293V362H182.333V270Z" fill="white"/>
</mask>
<g mask="url(#mask0_3_5)">
<mask id="mask1_3_5" style="mask-type:luminance" maskUnits="userSpaceOnUse" x="16" y="214" width="280" height="294">
<path d="M126.49 214.255L295.005 306.276L185.25 507.26L16.7397 415.24L126.49 214.255Z" fill="white"/>
</mask>
<g mask="url(#mask1_3_5)">
<mask id="mask2_3_5" style="mask-type:luminance" maskUnits="userSpaceOnUse" x="16" y="214" width="280" height="294">
<path d="M126.49 214.255L295.005 306.276L185.25 507.26L16.7397 415.24L126.49 214.255Z" fill="white"/>
</mask>
<g mask="url(#mask2_3_5)">
<mask id="mask3_3_5" style="mask-type:luminance" maskUnits="userSpaceOnUse" x="182" y="271" width="111" height="91">
<path d="M292.714 307.807C292.38 304.854 277.87 304.349 276.13 304.292C267.156 303.974 259.662 305.188 254.349 306.417C251.974 302.932 249.599 299.443 247.224 295.958C248.271 295.792 249.323 295.625 250.375 295.464C250.255 294.688 249.985 293.563 249.344 292.339C248.578 290.891 247.62 289.932 246.979 289.385C245.985 289.615 244.99 289.844 244 290.073C239.724 284.125 235.448 278.182 231.172 272.234C231.146 272.219 231.115 272.198 231.084 272.182C227.073 271.479 222.979 271.542 218.912 271.328C223.792 279.661 228.672 287.995 233.552 296.328L231.625 296.839C231.865 297.286 232.104 297.729 232.344 298.172C233.13 298.214 233.917 298.255 234.703 298.297C236.448 301.276 238.193 304.26 239.938 307.24L198.724 315.766C196.391 312.604 194.052 309.448 191.714 306.292C188.766 305.865 185.818 305.432 182.87 305.005L190.667 318.807C189.417 319.255 188.172 319.698 186.927 320.141C186.969 320.49 187.016 320.833 187.057 321.177C188.302 321.375 189.542 321.573 190.787 321.771C188.974 326.37 187.156 330.974 185.344 335.578C188.167 334.781 190.99 333.979 193.813 333.182C195.714 329.547 197.61 325.906 199.511 322.271L241.453 320.76L238.573 329.589L236.667 330.12L236.438 331.031C236.755 331.245 237.073 331.458 237.386 331.672C233.672 341.646 229.953 351.62 226.24 361.594C227.714 361.266 228.917 360.953 229.729 360.714C232.375 359.932 235 359.021 237.682 358.375C238.063 358.286 238.443 358.203 238.823 358.125C242.307 350.891 245.797 343.661 249.281 336.427C250.302 336.406 251.328 336.385 252.349 336.37C252.875 335.729 253.63 334.646 254.115 333.135C254.505 331.922 254.584 330.849 254.584 330.099C253.552 329.932 252.521 329.771 251.49 329.604C253.031 325.875 254.573 322.141 256.115 318.411C262.162 318.182 270.479 317.286 279.917 314.312C283.87 313.068 292.99 310.193 292.714 307.807Z" fill="white"/>
</mask>
<g mask="url(#mask3_3_5)">
<path d="M208.167 225.005L144.901 340.859L267.693 407.911L330.959 292.062L208.167 225.005Z" fill="white"/>
</g>
</g>
</g>
</g>
<mask id="mask4_3_5" style="mask-type:luminance" maskUnits="userSpaceOnUse" x="29" y="320" width="154" height="112">
<path d="M29 320.667H182.333V431.333H29V320.667Z" fill="white"/>
</mask>
<g mask="url(#mask4_3_5)">
<mask id="mask5_3_5" style="mask-type:luminance" maskUnits="userSpaceOnUse" x="16" y="214" width="280" height="294">
<path d="M126.49 214.255L295.005 306.276L185.25 507.26L16.7396 415.24L126.49 214.255Z" fill="white"/>
</mask>
<g mask="url(#mask5_3_5)">
<mask id="mask6_3_5" style="mask-type:luminance" maskUnits="userSpaceOnUse" x="16" y="214" width="280" height="294">
<path d="M126.49 214.255L295.005 306.276L185.25 507.26L16.7396 415.24L126.49 214.255Z" fill="white"/>
</mask>
<g mask="url(#mask6_3_5)">
<mask id="mask7_3_5" style="mask-type:luminance" maskUnits="userSpaceOnUse" x="29" y="320" width="153" height="111">
<path d="M60.2083 358.859C48.1563 368.339 35.026 381.755 30.724 396.818C28.651 403.552 28.1719 411.339 31.5625 417.75C34.7813 424.026 41.0469 428.177 47.6771 430.089C39.6823 426.37 32.9844 419.76 32.4844 410.573C32.2135 406.312 33.2344 402.099 34.7188 398.125C40.25 382.833 56.2344 369.01 69.3542 359.901C83.0052 350.464 97.9427 342.932 113.432 336.969C127.479 331.568 141.979 327.516 156.786 324.693C165.047 323.104 173.417 321.948 181.781 321.047C139.479 319.229 93.7656 332.839 60.2083 358.859Z" fill="white"/>
</mask>
<g mask="url(#mask7_3_5)">
<path d="M63.4531 254.615L-18.4583 404.625L146.495 494.698L228.411 344.693L63.4531 254.615Z" fill="white"/>
</g>
</g>
</g>
</g>
<path d="M86.6971 379.559H98.3846C98.1346 380.132 97.9575 380.658 97.8638 381.143C97.7804 381.617 97.7388 382.09 97.7388 382.559C97.7388 383.768 98.1138 384.867 98.8638 385.851C99.6138 386.825 100.572 387.783 101.739 388.726C102.916 389.674 104.166 390.679 105.489 391.747C106.806 392.82 108.056 394.054 109.239 395.455C110.431 396.861 111.405 398.528 112.155 400.455C112.905 402.372 113.28 404.643 113.28 407.268C113.28 409.34 112.822 411.278 111.905 413.08C110.999 414.872 109.791 416.45 108.28 417.809C106.765 419.158 105.093 420.215 103.26 420.976C101.426 421.742 99.5825 422.122 97.7388 422.122H84.5513V412.518H93.8429C94.77 412.518 95.7909 412.32 96.9054 411.913C98.0304 411.497 98.9888 410.908 99.7804 410.143C100.583 409.382 100.989 408.476 100.989 407.434C100.989 405.799 100.619 404.372 99.8846 403.163C99.1606 401.955 98.2284 400.867 97.0929 399.893C95.9523 398.908 94.744 397.929 93.4679 396.955C92.1867 395.971 90.9784 394.908 89.8429 393.768C88.7023 392.632 87.7648 391.304 87.0304 389.788C86.3065 388.278 85.9471 386.492 85.9471 384.434C85.9471 383.007 86.1971 381.382 86.6971 379.559Z" fill="white"/>
<path d="M142.585 412.518H114.773V398.726C114.773 395.924 115.315 393.288 116.398 390.83C117.481 388.372 118.992 386.221 120.94 384.372C122.882 382.528 125.127 381.075 127.669 380.018C130.21 378.965 132.94 378.434 135.856 378.434C138.742 378.434 141.45 378.965 143.981 380.018C146.507 381.075 148.731 382.538 150.648 384.413C152.575 386.278 154.085 388.434 155.169 390.893C156.252 393.34 156.794 395.971 156.794 398.788V431.726H145.148V398.205C145.148 396.32 144.731 394.611 143.898 393.08C143.065 391.554 141.95 390.34 140.565 389.434C139.174 388.518 137.627 388.059 135.919 388.059C134.169 388.059 132.57 388.507 131.127 389.393C129.695 390.283 128.549 391.476 127.69 392.976C126.841 394.465 126.419 396.117 126.419 397.934V402.893H142.585V412.518Z" fill="white"/>
<path d="M175.536 379.559H195.349V389.184H178.474C177.224 389.184 176.068 389.538 175.015 390.247C173.974 390.955 173.146 391.908 172.536 393.101C171.937 394.299 171.64 395.601 171.64 397.018V400.601H195.286L195.349 410.205H171.64V431.726H159.995V396.393C159.995 394.215 160.375 392.122 161.14 390.122C161.901 388.111 162.984 386.309 164.39 384.726C165.807 383.143 167.453 381.887 169.328 380.955C171.213 380.028 173.286 379.559 175.536 379.559Z" fill="white"/>
<path d="M198.223 379.559H226.368C228.462 379.559 230.41 380.007 232.202 380.893C234.004 381.783 235.587 382.971 236.952 384.455C238.327 385.929 239.395 387.596 240.16 389.455C240.921 391.304 241.306 393.184 241.306 395.101C241.306 396.992 240.952 398.882 240.243 400.768C239.535 402.658 238.52 404.304 237.202 405.705C235.879 407.111 234.311 408.059 232.493 408.559C235.129 409.768 236.936 411.34 237.91 413.268C238.895 415.184 239.389 417.304 239.389 419.622V431.726H227.743V420.476C227.743 415.268 225.431 412.663 220.806 412.663H212.431V403.059H222.41C223.504 403.059 224.561 402.747 225.577 402.122C226.587 401.497 227.415 400.674 228.056 399.643C228.707 398.617 229.035 397.455 229.035 396.163C229.035 394.747 228.691 393.518 228.014 392.476C227.332 391.424 226.457 390.611 225.389 390.038C224.332 389.471 223.191 389.184 221.973 389.184H209.868V422.122H198.223V379.559Z" fill="white"/>
<path d="M270.616 412.518H242.804V398.726C242.804 395.924 243.345 393.288 244.429 390.83C245.512 388.372 247.022 386.221 248.97 384.372C250.913 382.528 253.158 381.075 255.7 380.018C258.241 378.965 260.97 378.434 263.887 378.434C266.772 378.434 269.481 378.965 272.012 380.018C274.538 381.075 276.762 382.538 278.679 384.413C280.606 386.278 282.116 388.434 283.2 390.893C284.283 393.34 284.825 395.971 284.825 398.788V431.726H273.179V398.205C273.179 396.32 272.762 394.611 271.929 393.08C271.095 391.554 269.981 390.34 268.595 389.434C267.205 388.518 265.658 388.059 263.95 388.059C262.2 388.059 260.601 388.507 259.158 389.393C257.726 390.283 256.58 391.476 255.72 392.976C254.871 394.465 254.45 396.117 254.45 397.934V402.893H270.616V412.518Z" fill="white"/>
<path d="M288.026 379.559H299.234V422.122H288.026V379.559ZM316.963 379.559H328.172V431.726H316.963V407.538H301.797V397.934H316.963V379.559Z" fill="white"/>
<path d="M98.6637 495V480.455H100.425V487.67H100.596L107.13 480.455H109.431L103.323 487.017L109.431 495H107.3L102.243 488.239L100.425 490.284V495H98.6637ZM113.159 488.438V495H111.483V484.091H113.103V485.795H113.245C113.5 485.241 113.889 484.796 114.409 484.46C114.93 484.119 115.603 483.949 116.426 483.949C117.165 483.949 117.811 484.1 118.365 484.403C118.919 484.702 119.35 485.156 119.658 485.767C119.966 486.373 120.12 487.14 120.12 488.068V495H118.444V488.182C118.444 487.325 118.221 486.657 117.776 486.179C117.331 485.696 116.72 485.455 115.944 485.455C115.408 485.455 114.93 485.571 114.509 485.803C114.092 486.035 113.763 486.373 113.522 486.818C113.28 487.263 113.159 487.803 113.159 488.438ZM127.614 495.227C126.629 495.227 125.765 494.993 125.022 494.524C124.283 494.055 123.706 493.4 123.289 492.557C122.877 491.714 122.671 490.729 122.671 489.602C122.671 488.466 122.877 487.474 123.289 486.626C123.706 485.779 124.283 485.121 125.022 484.652C125.765 484.183 126.629 483.949 127.614 483.949C128.599 483.949 129.461 484.183 130.2 484.652C130.943 485.121 131.521 485.779 131.933 486.626C132.349 487.474 132.558 488.466 132.558 489.602C132.558 490.729 132.349 491.714 131.933 492.557C131.521 493.4 130.943 494.055 130.2 494.524C129.461 494.993 128.599 495.227 127.614 495.227ZM127.614 493.722C128.362 493.722 128.978 493.53 129.461 493.146C129.944 492.763 130.301 492.259 130.533 491.634C130.765 491.009 130.881 490.331 130.881 489.602C130.881 488.873 130.765 488.194 130.533 487.564C130.301 486.934 129.944 486.425 129.461 486.037C128.978 485.649 128.362 485.455 127.614 485.455C126.866 485.455 126.251 485.649 125.768 486.037C125.285 486.425 124.927 486.934 124.695 487.564C124.463 488.194 124.347 488.873 124.347 489.602C124.347 490.331 124.463 491.009 124.695 491.634C124.927 492.259 125.285 492.763 125.768 493.146C126.251 493.53 126.866 493.722 127.614 493.722ZM137.217 495L133.893 484.091H135.654L138.012 492.443H138.126L140.455 484.091H142.245L144.546 492.415H144.66L147.018 484.091H148.779L145.455 495H143.808L141.421 486.619H141.251L138.864 495H137.217ZM156.847 495V480.455H161.933C162.946 480.455 163.781 480.63 164.44 480.98C165.098 481.326 165.588 481.792 165.91 482.379C166.232 482.962 166.393 483.608 166.393 484.318C166.393 484.943 166.281 485.459 166.059 485.866C165.841 486.274 165.552 486.596 165.192 486.832C164.837 487.069 164.451 487.244 164.035 487.358V487.5C164.48 487.528 164.927 487.685 165.377 487.969C165.827 488.253 166.203 488.66 166.506 489.19C166.809 489.721 166.961 490.369 166.961 491.136C166.961 491.866 166.795 492.521 166.464 493.104C166.132 493.686 165.609 494.148 164.894 494.489C164.179 494.83 163.249 495 162.103 495H156.847ZM158.609 493.438H162.103C163.254 493.438 164.07 493.215 164.553 492.77C165.041 492.32 165.285 491.776 165.285 491.136C165.285 490.644 165.159 490.189 164.908 489.773C164.657 489.351 164.3 489.015 163.836 488.764C163.372 488.509 162.823 488.381 162.188 488.381H158.609V493.438ZM158.609 486.847H161.876C162.406 486.847 162.884 486.742 163.31 486.534C163.741 486.326 164.082 486.032 164.333 485.653C164.589 485.275 164.717 484.83 164.717 484.318C164.717 483.679 164.494 483.137 164.049 482.692C163.604 482.242 162.898 482.017 161.933 482.017H158.609V486.847ZM174.202 495.227C173.151 495.227 172.244 494.995 171.482 494.531C170.724 494.062 170.139 493.409 169.727 492.571C169.32 491.728 169.116 490.748 169.116 489.631C169.116 488.513 169.32 487.528 169.727 486.676C170.139 485.819 170.712 485.152 171.446 484.673C172.185 484.19 173.046 483.949 174.031 483.949C174.599 483.949 175.161 484.044 175.714 484.233C176.268 484.422 176.773 484.73 177.227 485.156C177.682 485.578 178.044 486.136 178.314 486.832C178.584 487.528 178.719 488.385 178.719 489.403V490.114H170.31V488.665H177.014C177.014 488.049 176.891 487.5 176.645 487.017C176.403 486.534 176.058 486.153 175.608 485.874C175.163 485.594 174.637 485.455 174.031 485.455C173.364 485.455 172.786 485.62 172.298 485.952C171.815 486.278 171.444 486.705 171.183 487.23C170.923 487.756 170.793 488.319 170.793 488.92V489.886C170.793 490.71 170.935 491.409 171.219 491.982C171.508 492.55 171.908 492.983 172.419 493.281C172.93 493.575 173.525 493.722 174.202 493.722C174.642 493.722 175.04 493.66 175.395 493.537C175.755 493.409 176.065 493.22 176.325 492.969C176.586 492.713 176.787 492.396 176.929 492.017L178.548 492.472C178.378 493.021 178.091 493.504 177.689 493.92C177.286 494.332 176.789 494.654 176.197 494.886C175.606 495.114 174.94 495.227 174.202 495.227ZM186.126 484.091V485.511H180.246V484.091H186.126ZM182.007 495V482.585C182.007 481.96 182.154 481.439 182.447 481.023C182.741 480.606 183.122 480.294 183.591 480.085C184.06 479.877 184.554 479.773 185.075 479.773C185.487 479.773 185.823 479.806 186.084 479.872C186.344 479.938 186.538 480 186.666 480.057L186.183 481.506C186.098 481.477 185.98 481.442 185.828 481.399C185.681 481.357 185.487 481.335 185.246 481.335C184.692 481.335 184.292 481.475 184.045 481.754C183.804 482.034 183.683 482.443 183.683 482.983V495H182.007ZM192.458 495.227C191.473 495.227 190.609 494.993 189.866 494.524C189.127 494.055 188.549 493.4 188.133 492.557C187.721 491.714 187.515 490.729 187.515 489.602C187.515 488.466 187.721 487.474 188.133 486.626C188.549 485.779 189.127 485.121 189.866 484.652C190.609 484.183 191.473 483.949 192.458 483.949C193.443 483.949 194.305 484.183 195.043 484.652C195.787 485.121 196.364 485.779 196.776 486.626C197.193 487.474 197.401 488.466 197.401 489.602C197.401 490.729 197.193 491.714 196.776 492.557C196.364 493.4 195.787 494.055 195.043 494.524C194.305 494.993 193.443 495.227 192.458 495.227ZM192.458 493.722C193.206 493.722 193.822 493.53 194.305 493.146C194.788 492.763 195.145 492.259 195.377 491.634C195.609 491.009 195.725 490.331 195.725 489.602C195.725 488.873 195.609 488.194 195.377 487.564C195.145 486.934 194.788 486.425 194.305 486.037C193.822 485.649 193.206 485.455 192.458 485.455C191.71 485.455 191.094 485.649 190.612 486.037C190.129 486.425 189.771 486.934 189.539 487.564C189.307 488.194 189.191 488.873 189.191 489.602C189.191 490.331 189.307 491.009 189.539 491.634C189.771 492.259 190.129 492.763 190.612 493.146C191.094 493.53 191.71 493.722 192.458 493.722ZM199.96 495V484.091H201.579V485.739H201.693C201.892 485.199 202.252 484.761 202.772 484.425C203.293 484.089 203.88 483.92 204.534 483.92C204.657 483.92 204.811 483.923 204.995 483.928C205.18 483.932 205.32 483.939 205.414 483.949V485.653C205.358 485.639 205.227 485.618 205.024 485.589C204.825 485.556 204.614 485.54 204.392 485.54C203.861 485.54 203.388 485.651 202.971 485.874C202.559 486.091 202.233 486.394 201.991 486.783C201.754 487.166 201.636 487.604 201.636 488.097V495H199.96ZM211.643 495.227C210.592 495.227 209.685 494.995 208.923 494.531C208.165 494.062 207.581 493.409 207.169 492.571C206.761 491.728 206.558 490.748 206.558 489.631C206.558 488.513 206.761 487.528 207.169 486.676C207.581 485.819 208.154 485.152 208.887 484.673C209.626 484.19 210.488 483.949 211.473 483.949C212.041 483.949 212.602 484.044 213.156 484.233C213.71 484.422 214.214 484.73 214.669 485.156C215.123 485.578 215.485 486.136 215.755 486.832C216.025 487.528 216.16 488.385 216.16 489.403V490.114H207.751V488.665H214.456C214.456 488.049 214.333 487.5 214.086 487.017C213.845 486.534 213.499 486.153 213.049 485.874C212.604 485.594 212.079 485.455 211.473 485.455C210.805 485.455 210.227 485.62 209.74 485.952C209.257 486.278 208.885 486.705 208.625 487.23C208.364 487.756 208.234 488.319 208.234 488.92V489.886C208.234 490.71 208.376 491.409 208.66 491.982C208.949 492.55 209.349 492.983 209.86 493.281C210.372 493.575 210.966 493.722 211.643 493.722C212.083 493.722 212.481 493.66 212.836 493.537C213.196 493.409 213.506 493.22 213.767 492.969C214.027 492.713 214.228 492.396 214.37 492.017L215.99 492.472C215.819 493.021 215.533 493.504 215.13 493.92C214.728 494.332 214.231 494.654 213.639 494.886C213.047 495.114 212.382 495.227 211.643 495.227ZM223.312 480.455H225.329L229.363 487.244H229.534L233.568 480.455H235.585L230.329 489.006V495H228.568V489.006L223.312 480.455ZM240.525 495.227C239.54 495.227 238.676 494.993 237.932 494.524C237.194 494.055 236.616 493.4 236.199 492.557C235.787 491.714 235.581 490.729 235.581 489.602C235.581 488.466 235.787 487.474 236.199 486.626C236.616 485.779 237.194 485.121 237.932 484.652C238.676 484.183 239.54 483.949 240.525 483.949C241.509 483.949 242.371 484.183 243.11 484.652C243.853 485.121 244.431 485.779 244.843 486.626C245.259 487.474 245.468 488.466 245.468 489.602C245.468 490.729 245.259 491.714 244.843 492.557C244.431 493.4 243.853 494.055 243.11 494.524C242.371 494.993 241.509 495.227 240.525 495.227ZM240.525 493.722C241.273 493.722 241.888 493.53 242.371 493.146C242.854 492.763 243.212 492.259 243.444 491.634C243.676 491.009 243.792 490.331 243.792 489.602C243.792 488.873 243.676 488.194 243.444 487.564C243.212 486.934 242.854 486.425 242.371 486.037C241.888 485.649 241.273 485.455 240.525 485.455C239.776 485.455 239.161 485.649 238.678 486.037C238.195 486.425 237.837 486.934 237.605 487.564C237.373 488.194 237.257 488.873 237.257 489.602C237.257 490.331 237.373 491.009 237.605 491.634C237.837 492.259 238.195 492.763 238.678 493.146C239.161 493.53 239.776 493.722 240.525 493.722ZM254.901 490.54V484.091H256.577V495H254.901V493.153H254.788C254.532 493.707 254.134 494.179 253.594 494.567C253.055 494.95 252.373 495.142 251.549 495.142C250.867 495.142 250.261 494.993 249.731 494.695C249.201 494.392 248.784 493.937 248.481 493.331C248.178 492.72 248.026 491.951 248.026 491.023V484.091H249.702V490.909C249.702 491.705 249.925 492.339 250.37 492.812C250.82 493.286 251.393 493.523 252.089 493.523C252.505 493.523 252.929 493.416 253.36 493.203C253.796 492.99 254.16 492.663 254.454 492.223C254.752 491.783 254.901 491.222 254.901 490.54ZM275.443 485C275.287 484.522 275.081 484.093 274.825 483.714C274.574 483.331 274.273 483.004 273.923 482.734C273.577 482.464 273.184 482.259 272.744 482.116C272.304 481.974 271.821 481.903 271.295 481.903C270.433 481.903 269.65 482.126 268.944 482.571C268.239 483.016 267.678 483.672 267.261 484.538C266.844 485.405 266.636 486.468 266.636 487.727C266.636 488.987 266.847 490.05 267.268 490.916C267.69 491.783 268.26 492.438 268.98 492.884C269.699 493.329 270.509 493.551 271.409 493.551C272.242 493.551 272.976 493.374 273.61 493.018C274.25 492.659 274.747 492.152 275.102 491.499C275.462 490.84 275.642 490.066 275.642 489.176L276.181 489.29H271.806V487.727H277.346V489.29C277.346 490.488 277.091 491.529 276.579 492.415C276.073 493.3 275.372 493.987 274.477 494.474C273.587 494.957 272.564 495.199 271.409 495.199C270.121 495.199 268.989 494.896 268.014 494.29C267.043 493.684 266.286 492.822 265.741 491.705C265.201 490.587 264.931 489.261 264.931 487.727C264.931 486.577 265.085 485.542 265.393 484.624C265.706 483.7 266.146 482.914 266.714 482.266C267.282 481.617 267.955 481.12 268.731 480.774C269.508 480.429 270.362 480.256 271.295 480.256C272.062 480.256 272.777 480.372 273.44 480.604C274.108 480.831 274.702 481.155 275.223 481.577C275.748 481.993 276.186 482.493 276.537 483.075C276.887 483.653 277.128 484.295 277.261 485H275.443ZM284.567 495.227C283.583 495.227 282.719 494.993 281.975 494.524C281.237 494.055 280.659 493.4 280.242 492.557C279.83 491.714 279.624 490.729 279.624 489.602C279.624 488.466 279.83 487.474 280.242 486.626C280.659 485.779 281.237 485.121 281.975 484.652C282.719 484.183 283.583 483.949 284.567 483.949C285.552 483.949 286.414 484.183 287.153 484.652C287.896 485.121 288.474 485.779 288.886 486.626C289.302 487.474 289.511 488.466 289.511 489.602C289.511 490.729 289.302 491.714 288.886 492.557C288.474 493.4 287.896 494.055 287.153 494.524C286.414 494.993 285.552 495.227 284.567 495.227ZM284.567 493.722C285.316 493.722 285.931 493.53 286.414 493.146C286.897 492.763 287.254 492.259 287.487 491.634C287.719 491.009 287.835 490.331 287.835 489.602C287.835 488.873 287.719 488.194 287.487 487.564C287.254 486.934 286.897 486.425 286.414 486.037C285.931 485.649 285.316 485.455 284.567 485.455C283.819 485.455 283.204 485.649 282.721 486.037C282.238 486.425 281.88 486.934 281.648 487.564C281.416 488.194 281.3 488.873 281.3 489.602C281.3 490.331 281.416 491.009 281.648 491.634C281.88 492.259 282.238 492.763 282.721 493.146C283.204 493.53 283.819 493.722 284.567 493.722Z" fill="#E0E0E0"/>
<g clip-path="url(#clip0_3_5)">
<g opacity="0.05">
<g clip-path="url(#clip1_3_5)">
<g clip-path="url(#clip2_3_5)">
<path d="M320.5 3C320.5 4.56875 318.653 6.90938 317.856 7.84375C317.738 7.98125 317.562 8.03438 317.403 8H314.5C313.947 8 313.5 8.44687 313.5 9C313.5 9.55313 313.947 10 314.5 10H317.5C319.156 10 320.5 11.3438 320.5 13C320.5 14.6562 319.156 16 317.5 16H308.863C309.134 15.6906 309.466 15.2938 309.8 14.85C309.997 14.5875 310.2 14.3 310.394 14H317.5C318.053 14 318.5 13.5531 318.5 13C318.5 12.4469 318.053 12 317.5 12H314.5C312.844 12 311.5 10.6562 311.5 9C311.5 7.34375 312.844 6 314.5 6H315.744C315.087 5.01562 314.5 3.88438 314.5 3C314.5 1.34375 315.844 0 317.5 0C319.156 0 320.5 1.34375 320.5 3ZM308.159 15.2844C308.041 15.4187 307.934 15.5375 307.844 15.6375L307.787 15.7L307.781 15.6938C307.594 15.8375 307.325 15.8187 307.156 15.6375C306.369 14.7812 304.5 12.5781 304.5 11C304.5 9.34375 305.844 8 307.5 8C309.156 8 310.5 9.34375 310.5 11C310.5 11.9375 309.841 13.0938 309.141 14.0594C308.806 14.5188 308.462 14.9344 308.178 15.2625L308.159 15.2844ZM308.5 11C308.5 10.7348 308.395 10.4804 308.207 10.2929C308.02 10.1054 307.765 10 307.5 10C307.235 10 306.98 10.1054 306.793 10.2929C306.605 10.4804 306.5 10.7348 306.5 11C306.5 11.2652 306.605 11.5196 306.793 11.7071C306.98 11.8946 307.235 12 307.5 12C307.765 12 308.02 11.8946 308.207 11.7071C308.395 11.5196 308.5 11.2652 308.5 11ZM317.5 4C317.765 4 318.02 3.89464 318.207 3.70711C318.395 3.51957 318.5 3.26522 318.5 3C318.5 2.73478 318.395 2.48043 318.207 2.29289C318.02 2.10536 317.765 2 317.5 2C317.235 2 316.98 2.10536 316.793 2.29289C316.605 2.48043 316.5 2.73478 316.5 3C316.5 3.26522 316.605 3.51957 316.793 3.70711C316.98 3.89464 317.235 4 317.5 4Z" fill="black"/>
</g>
</g>
<g clip-path="url(#clip3_3_5)">
<g clip-path="url(#clip4_3_5)">
<path d="M357.053 6.03125L357.347 6.54375C357.606 6.99687 358.031 7.33125 358.534 7.475L360.344 7.99062C360.881 8.14375 361.25 8.63438 361.25 9.19375V10.4406C361.25 10.7844 361.444 11.0969 361.75 11.25C362.056 11.4031 362.25 11.7156 362.25 12.0594V13.2781C362.25 13.7656 362.716 14.1187 363.184 13.9844C363.688 13.8406 364.078 13.4375 364.206 12.9281L364.294 12.5781C364.425 12.05 364.769 11.5969 365.241 11.3281L365.494 11.1844C365.962 10.9187 366.25 10.4188 366.25 9.88125V9.62187C366.25 9.225 366.091 8.84375 365.809 8.5625L365.688 8.44063C365.406 8.15938 365.025 8 364.628 8H363.281C362.934 8 362.591 7.90938 362.287 7.7375L361.209 7.12187C361.075 7.04375 360.972 6.91875 360.922 6.77187C360.822 6.47187 360.956 6.14687 361.241 6.00625L361.425 5.9125C361.631 5.80937 361.872 5.79063 362.091 5.86562L362.816 6.10625C363.072 6.19062 363.353 6.09375 363.5 5.87187C363.647 5.65312 363.631 5.3625 363.462 5.15938L363.037 4.65C362.725 4.275 362.728 3.72813 363.047 3.35938L363.538 2.7875C363.812 2.46562 363.856 2.00625 363.647 1.64062L363.572 1.50937C363.462 1.50312 363.356 1.5 363.247 1.5C360.347 1.5 357.888 3.40313 357.053 6.03125ZM369.75 8C369.75 6.85 369.45 5.76875 368.925 4.82812L368.125 5.15C367.634 5.34688 367.381 5.89375 367.547 6.39375L368.075 7.97813C368.184 8.30313 368.45 8.55 368.781 8.63125L369.691 8.85938C369.728 8.57812 369.747 8.29062 369.747 8H369.75ZM355.25 8C355.25 5.87827 356.093 3.84344 357.593 2.34315C359.093 0.842855 361.128 0 363.25 0C365.372 0 367.407 0.842855 368.907 2.34315C370.407 3.84344 371.25 5.87827 371.25 8C371.25 10.1217 370.407 12.1566 368.907 13.6569C367.407 15.1571 365.372 16 363.25 16C361.128 16 359.093 15.1571 357.593 13.6569C356.093 12.1566 355.25 10.1217 355.25 8Z" fill="black"/>
</g>
</g>
<g clip-path="url(#clip5_3_5)">
<path d="M267.901 85.1771L299.187 101.375L278.469 125.458L265.516 122.948L262.979 125.344L272.443 132.865C270.896 134.823 268.802 137.583 269.906 138.896C270.854 139.786 273.75 138.521 275.979 136.87L280.891 148.729L284.156 145.807L284.224 131.813L309.708 113.995L319.469 146.693L324.052 143.531L325.25 101.26C335.922 92.6146 345.833 78.5313 342.734 75.4844C339.63 72.4323 322.469 80.9271 314.474 87.9583L271.333 81.8698L267.901 85.1771Z" fill="white"/>
<mask id="mask8_3_5" style="mask-type:luminance" maskUnits="userSpaceOnUse" x="17" y="47" width="249" height="261">
<path d="M17.8594 47.0625H266V307.062H17.8594V47.0625Z" fill="white"/>
</mask>
<g mask="url(#mask8_3_5)">
<path d="M82.849 277.703C84.849 275.901 86.7969 274.047 88.7083 272.146C89.5052 271.349 90.8021 271.349 91.599 272.151C92.3958 272.948 92.3958 274.245 91.5937 275.042C89.6406 276.99 87.6406 278.891 85.5885 280.74C84.7552 281.495 83.4583 281.432 82.7031 280.594C81.9427 279.755 82.0104 278.464 82.849 277.703ZM96.9687 263.286C98.724 261.255 100.437 259.182 102.104 257.057C102.807 256.172 104.089 256.016 104.979 256.714C105.865 257.411 106.021 258.698 105.323 259.583C103.615 261.76 101.859 263.885 100.057 265.964C99.3177 266.818 98.026 266.906 97.1719 266.167C96.3229 265.427 96.2292 264.135 96.9687 263.286ZM109.255 247.271C115.167 238.568 120.417 229.161 125.01 219.052C125.479 218.026 126.693 217.573 127.719 218.036C128.75 218.505 129.203 219.719 128.734 220.745C124.047 231.062 118.682 240.672 112.641 249.568C112.005 250.505 110.734 250.75 109.802 250.115C108.865 249.479 108.625 248.208 109.255 247.271ZM129.719 207.854C130.693 205.349 131.63 202.802 132.526 200.219C132.901 199.151 134.068 198.589 135.13 198.958C136.198 199.333 136.76 200.495 136.391 201.562C135.474 204.193 134.526 206.786 133.531 209.333C133.125 210.391 131.937 210.911 130.885 210.5C129.833 210.094 129.312 208.906 129.719 207.854ZM136.24 188.625C136.99 186.068 137.708 183.469 138.391 180.844C138.677 179.75 139.797 179.094 140.885 179.375C141.979 179.661 142.635 180.781 142.349 181.87C141.656 184.542 140.927 187.177 140.167 189.776C139.844 190.859 138.708 191.484 137.625 191.161C136.542 190.844 135.922 189.708 136.24 188.625ZM141.203 168.995C142.552 162.714 143.729 156.25 144.729 149.599L144.714 149.698C145.161 145.312 145.458 141.052 145.604 136.927C145.646 135.797 146.594 134.917 147.719 134.953C148.849 134.995 149.734 135.943 149.693 137.073C149.542 141.286 149.24 145.635 148.786 150.109C148.781 150.141 148.776 150.177 148.771 150.208C147.76 156.943 146.568 163.49 145.203 169.854C144.964 170.958 143.875 171.661 142.771 171.427C141.667 171.188 140.964 170.099 141.203 168.995ZM145.583 124.807C145.474 122.068 145.286 119.385 145.021 116.776C144.911 115.651 145.729 114.651 146.854 114.536C147.974 114.422 148.979 115.24 149.094 116.365C149.365 119.057 149.557 121.818 149.672 124.641C149.719 125.771 148.844 126.724 147.714 126.771C146.583 126.812 145.63 125.938 145.583 124.807ZM143.203 104.865C142.646 102.198 141.995 99.6094 141.25 97.1042C140.932 96.0208 141.547 94.8802 142.63 94.5625C143.714 94.2396 144.854 94.8594 145.172 95.9427C145.948 98.5573 146.625 101.25 147.208 104.031C147.437 105.135 146.729 106.219 145.625 106.448C144.521 106.682 143.437 105.974 143.203 104.865ZM137.062 85.8906C134.958 81.3125 132.474 77.0625 129.604 73.1458L129.729 73.3021C125.552 68.625 121.417 64.6875 117.328 61.4844C116.443 60.7917 116.286 59.5052 116.979 58.6146C117.677 57.724 118.964 57.5677 119.854 58.2656C124.13 61.6146 128.437 65.7187 132.776 70.5729C132.823 70.625 132.865 70.6771 132.901 70.7292C135.937 74.8698 138.562 79.3542 140.776 84.1823C141.25 85.2083 140.802 86.4219 139.776 86.8906C138.745 87.3646 137.531 86.9167 137.062 85.8906ZM107.354 55.0937C104.917 53.8906 102.5 52.9583 100.104 52.2969C99.0156 52 98.375 50.875 98.6719 49.7865C98.9687 48.6979 100.099 48.0573 101.187 48.3542C103.839 49.0833 106.5 50.1042 109.167 51.4271C110.182 51.9323 110.594 53.1562 110.094 54.1719C109.594 55.1823 108.365 55.5937 107.354 55.0937ZM88.6979 51.2396C86.1927 51.474 83.6979 52.0208 81.2135 52.8802C80.1458 53.25 78.9844 52.6875 78.6146 51.6198C78.2448 50.5521 78.8073 49.3854 79.875 49.0156C82.6719 48.0469 85.4844 47.4323 88.3177 47.1719C89.4427 47.0625 90.4427 47.8906 90.5469 49.0156C90.651 50.1406 89.8229 51.1354 88.6979 51.2396ZM71.8385 58.7604C67.3177 63.8437 64.776 70.8125 64.2083 79.6771V79.6562C64.0625 82.4115 64.1354 85.1927 64.4323 88C64.5521 89.125 63.7396 90.1302 62.6146 90.25C61.4948 90.3698 60.4844 89.5521 60.3698 88.4323C60.0469 85.4062 59.9635 82.4062 60.125 79.4375C60.125 79.4271 60.125 79.4219 60.125 79.4115C60.7552 69.6146 63.6406 61.8229 68.7812 56.0469C69.5312 55.1979 70.8281 55.125 71.6719 55.875C72.5156 56.625 72.5885 57.9167 71.8385 58.7604ZM66.849 99.6146C67.5052 101.776 68.349 104.344 69.375 107.312C69.7448 108.38 69.1771 109.547 68.1094 109.911C67.0417 110.281 65.8802 109.714 65.5104 108.651C64.4687 105.63 63.6094 103.016 62.9375 100.802C62.6094 99.724 63.2187 98.5781 64.2969 98.25C65.3802 97.9219 66.5208 98.5312 66.849 99.6146ZM73.4323 119.344C73.6146 120.88 73.3594 122.271 72.6771 123.51C72.6667 123.531 72.6562 123.552 72.6458 123.568C71.5729 125.385 69.3646 126.167 66.0208 125.906C64.8958 125.818 64.0521 124.833 64.1406 123.708C64.2292 122.583 65.2135 121.74 66.3385 121.828C67.9844 121.953 68.9167 121.844 69.125 121.49L69.0937 121.547C69.3542 121.062 69.4479 120.49 69.3698 119.818C69.2396 118.698 70.0469 117.682 71.1667 117.552C72.2865 117.422 73.3021 118.224 73.4323 119.344ZM53.7812 123.411C49.3177 122.568 46.6458 122.188 45.75 122.271C45.6719 122.281 45.5937 122.281 45.5104 122.281C42.4479 122.208 39.5677 122.74 36.875 123.87L37.0208 123.797C33.0625 125.849 29.8646 128.802 27.4219 132.672C26.8177 133.625 25.5521 133.911 24.5989 133.307C23.6458 132.703 23.3594 131.443 23.9635 130.484C26.8021 125.995 30.526 122.557 35.1406 120.167C35.1927 120.141 35.2396 120.12 35.2917 120.099C38.526 118.74 41.9635 118.104 45.6094 118.193L45.3698 118.198C46.6458 118.078 49.7031 118.479 54.5417 119.396C55.651 119.604 56.3802 120.677 56.1719 121.786C55.9583 122.896 54.8906 123.625 53.7812 123.411ZM23.0677 143.37C22.9844 143.708 22.901 144.057 22.8229 144.406C22.8229 144.422 22.8177 144.443 22.8125 144.458C22.2656 146.672 22 148.839 22.0208 150.958C22.0364 152.083 21.1302 153.01 20 153.021C18.8698 153.031 17.9427 152.125 17.9323 151C17.9062 148.531 18.2083 146.026 18.8437 143.474L18.8281 143.526C18.9167 143.146 19 142.771 19.0937 142.401C19.3594 141.302 20.4635 140.63 21.5625 140.896C22.6614 141.167 23.3333 142.271 23.0677 143.37ZM24.8073 161.786C25.9271 163.932 27.3906 166.042 29.1875 168.104C29.9323 168.958 29.8437 170.25 28.9896 170.99C28.1406 171.734 26.849 171.646 26.1042 170.792C24.0937 168.484 22.4531 166.115 21.1823 163.677C20.6614 162.677 21.0469 161.443 22.0469 160.917C23.0521 160.396 24.2864 160.786 24.8073 161.786ZM37.9687 175.969C41.6406 178.641 45.9427 181.224 50.875 183.724L50.6979 183.646C56.1302 185.776 61.5312 187.688 66.9115 189.37C67.9896 189.708 68.5937 190.859 68.2552 191.932C67.9167 193.01 66.7708 193.615 65.6927 193.276C60.2187 191.562 54.7239 189.62 49.2031 187.453C49.1406 187.427 49.0833 187.401 49.026 187.37C43.901 184.776 39.4115 182.078 35.5625 179.276C34.651 178.609 34.4479 177.333 35.1094 176.417C35.776 175.505 37.0521 175.302 37.9687 175.969ZM78.5833 192.682C81.2344 193.354 83.875 193.974 86.5104 194.536C87.6146 194.771 88.3177 195.859 88.0833 196.964C87.849 198.068 86.7604 198.771 85.6562 198.536C82.9687 197.964 80.276 197.333 77.5781 196.646C76.4844 196.37 75.8229 195.255 76.099 194.161C76.375 193.068 77.4896 192.406 78.5833 192.682ZM98.4479 196.714C101.12 197.115 103.786 197.464 106.448 197.75C107.568 197.875 108.38 198.88 108.26 200.005C108.135 201.13 107.13 201.938 106.005 201.818C103.292 201.521 100.568 201.172 97.8385 200.755C96.724 200.589 95.9531 199.547 96.1198 198.432C96.2917 197.312 97.3333 196.547 98.4479 196.714ZM118.552 198.667C129.406 199.135 140.161 198.625 150.807 197.146C151.927 196.99 152.958 197.771 153.115 198.891C153.271 200.01 152.49 201.042 151.37 201.198C140.479 202.714 129.479 203.229 118.375 202.755C117.245 202.708 116.37 201.755 116.422 200.625C116.469 199.495 117.422 198.62 118.552 198.667ZM162.75 195.068C165.38 194.516 168.01 193.906 170.63 193.234C171.724 192.953 172.839 193.615 173.12 194.708C173.396 195.802 172.74 196.917 171.646 197.198C168.964 197.885 166.281 198.51 163.589 199.073C162.484 199.302 161.396 198.594 161.167 197.49C160.937 196.385 161.646 195.302 162.75 195.068ZM182.266 189.844C184.818 189.01 187.359 188.115 189.896 187.167C190.953 186.771 192.13 187.307 192.526 188.365C192.922 189.422 192.385 190.599 191.328 190.995C188.74 191.969 186.141 192.875 183.536 193.729C182.464 194.078 181.312 193.495 180.958 192.422C180.609 191.349 181.193 190.193 182.266 189.844ZM201.135 182.557C210.724 178.286 220.224 173.177 229.635 167.224C230.589 166.62 231.854 166.901 232.458 167.859C233.062 168.813 232.776 170.078 231.823 170.677C222.24 176.74 212.568 181.943 202.797 186.297C201.766 186.755 200.557 186.292 200.099 185.26C199.641 184.229 200.104 183.021 201.135 182.557ZM239.771 160.464C241.964 158.922 244.156 157.339 246.344 155.703C247.25 155.026 248.531 155.214 249.203 156.12C249.88 157.021 249.698 158.302 248.792 158.979C246.573 160.635 244.349 162.25 242.12 163.812C241.193 164.464 239.917 164.24 239.271 163.312C238.62 162.385 238.844 161.115 239.771 160.464ZM255.927 148.219C257.901 146.615 259.865 144.969 261.828 143.286C262.687 142.552 263.979 142.656 264.714 143.51C265.448 144.37 265.349 145.661 264.49 146.396C262.5 148.099 260.51 149.766 258.51 151.391C257.635 152.104 256.349 151.974 255.635 151.099C254.922 150.219 255.052 148.932 255.927 148.219ZM46.3385 302.865C56.1146 297.812 65.1927 292.021 73.5677 285.495C74.4635 284.797 75.7448 284.958 76.4427 285.849C77.1354 286.74 76.974 288.026 76.0833 288.719C67.5104 295.401 58.2187 301.328 48.2187 306.5C47.2135 307.016 45.9792 306.625 45.4635 305.62C44.9427 304.62 45.3385 303.385 46.3385 302.865Z" fill="white"/>
</g>
</g>
</g>
</g>
<defs>
<clipPath id="clip0_3_5">
<path d="M0 0H390V844H0V0Z" fill="white"/>
</clipPath>
<clipPath id="clip1_3_5">
<rect width="16" height="16" fill="white" transform="translate(304.5)"/>
</clipPath>
<clipPath id="clip2_3_5">
<path d="M304.5 0H320.5V16H304.5V0Z" fill="white"/>
</clipPath>
<clipPath id="clip3_3_5">
<rect width="16" height="16" fill="white" transform="translate(355.25)"/>
</clipPath>
<clipPath id="clip4_3_5">
<path d="M355.25 0H371.25V16H355.25V0Z" fill="white"/>
</clipPath>
<clipPath id="clip5_3_5">
<rect width="372" height="219" fill="white" transform="translate(0 38)"/>
</clipPath>
</defs>
</svg>
