<svg width="70" height="34" viewBox="0 0 70 34" fill="none" xmlns="http://www.w3.org/2000/svg">
<mask id="mask0_5_2558" style="mask-type:luminance" maskUnits="userSpaceOnUse" x="35" y="0" width="27" height="20">
<path d="M35.8769 0H61.7706V19.3414H35.8769V0Z" fill="white"/>
</mask>
<g mask="url(#mask0_5_2558)">
<mask id="mask1_5_2558" style="mask-type:luminance" maskUnits="userSpaceOnUse" x="-3" y="-12" width="66" height="62">
<path d="M22.8106 -11.7194L62.2398 7.62639L36.5593 49.8798L-2.86865 30.534L22.8106 -11.7194Z" fill="white"/>
</mask>
<g mask="url(#mask1_5_2558)">
<mask id="mask2_5_2558" style="mask-type:luminance" maskUnits="userSpaceOnUse" x="-3" y="-12" width="66" height="62">
<path d="M22.8106 -11.7194L62.2398 7.62639L36.5593 49.8798L-2.86865 30.534L22.8106 -11.7194Z" fill="white"/>
</mask>
<g mask="url(#mask2_5_2558)">
<mask id="mask3_5_2558" style="mask-type:luminance" maskUnits="userSpaceOnUse" x="36" y="0" width="26" height="20">
<path d="M61.7035 7.94832C61.6256 7.32748 58.2304 7.22126 57.8234 7.20922C55.7237 7.14243 53.97 7.39755 52.727 7.65596C52.1713 6.92344 51.6156 6.18981 51.0599 5.45728C51.3049 5.42225 51.551 5.38721 51.7972 5.35326C51.7692 5.19011 51.7058 4.9536 51.5559 4.69629C51.3768 4.39189 51.1525 4.19042 51.0026 4.07545C50.7699 4.12362 50.5371 4.1718 50.3056 4.21998C49.3051 2.96954 48.3046 1.72019 47.3041 0.469744C47.298 0.466459 47.2907 0.462079 47.2834 0.458794C46.345 0.310974 45.3871 0.324114 44.4354 0.279221C45.5773 2.03116 46.7191 3.78309 47.861 5.53503L47.4101 5.64233C47.4661 5.7365 47.5222 5.82957 47.5783 5.92264C47.7623 5.9314 47.9463 5.94016 48.1303 5.94892C48.5386 6.57524 48.9468 7.20265 49.355 7.82897L39.7119 9.62142C39.166 8.95678 38.6188 8.29323 38.0716 7.62968C37.3819 7.5399 36.6921 7.44902 36.0024 7.35923L37.8267 10.2609C37.5342 10.355 37.243 10.4481 36.9517 10.5412C36.9615 10.6145 36.9724 10.6868 36.9822 10.7591C37.2734 10.8007 37.5635 10.8423 37.8547 10.8839C37.4306 11.8508 37.0053 12.8187 36.5812 13.7866C37.2417 13.6191 37.9022 13.4505 38.5627 13.283C39.0076 12.5187 39.4511 11.7533 39.8959 10.989L49.7097 10.6715L49.0358 12.5274L48.5897 12.6391L48.5361 12.8307C48.6105 12.8756 48.6848 12.9205 48.7579 12.9654C47.889 15.0623 47.0189 17.1591 46.15 19.256C46.4949 19.187 46.7764 19.1213 46.9665 19.0709C47.5856 18.9067 48.1998 18.7151 48.8274 18.5793C48.9163 18.5607 49.0053 18.5431 49.0943 18.5267C49.9095 17.0058 50.726 15.486 51.5413 13.9651C51.7801 13.9607 52.0202 13.9564 52.2591 13.9531C52.3822 13.8184 52.5589 13.5906 52.6722 13.2731C52.7636 13.018 52.7819 12.7924 52.7819 12.6347C52.5406 12.5997 52.2993 12.5658 52.058 12.5307C52.4187 11.7467 52.7794 10.9616 53.1401 10.1777C54.555 10.1295 56.5012 9.94114 58.7093 9.31592C59.6343 9.05423 61.7681 8.44981 61.7035 7.94832Z" fill="white"/>
</mask>
<g mask="url(#mask3_5_2558)">
<path d="M41.9213 -9.45935L27.1185 14.8969L55.8492 28.9934L70.652 4.63825L41.9213 -9.45935Z" fill="white"/>
</g>
</g>
</g>
</g>
<mask id="mask4_5_2558" style="mask-type:luminance" maskUnits="userSpaceOnUse" x="0" y="10" width="36" height="24">
<path d="M0 10.6518H35.8768V33.9175H0V10.6518Z" fill="white"/>
</mask>
<g mask="url(#mask4_5_2558)">
<mask id="mask5_5_2558" style="mask-type:luminance" maskUnits="userSpaceOnUse" x="-3" y="-12" width="66" height="62">
<path d="M22.8106 -11.7194L62.2398 7.62639L36.5593 49.8798L-2.86865 30.534L22.8106 -11.7194Z" fill="white"/>
</mask>
<g mask="url(#mask5_5_2558)">
<mask id="mask6_5_2558" style="mask-type:luminance" maskUnits="userSpaceOnUse" x="-3" y="-12" width="66" height="62">
<path d="M22.8106 -11.7194L62.2398 7.62639L36.5593 49.8798L-2.86865 30.534L22.8106 -11.7194Z" fill="white"/>
</mask>
<g mask="url(#mask6_5_2558)">
<mask id="mask7_5_2558" style="mask-type:luminance" maskUnits="userSpaceOnUse" x="0" y="10" width="36" height="24">
<path d="M7.30214 18.6811C4.48221 20.6739 1.41001 23.4945 0.40341 26.6612C-0.0816096 28.077 -0.193725 29.7139 0.599612 31.0618C1.35273 32.3812 2.81876 33.2539 4.37009 33.6558C2.49948 32.874 0.932301 31.4845 0.815311 29.553C0.751942 28.6573 0.990796 27.7715 1.33811 26.936C2.63231 23.7212 6.37232 20.8152 9.44208 18.9001C12.6361 16.916 16.1312 15.3327 19.7555 14.079C23.0421 12.9435 26.4348 12.0916 29.8994 11.4982C31.8322 11.1642 33.7906 10.9211 35.7477 10.7317C25.8499 10.3496 15.1539 13.2107 7.30214 18.6811Z" fill="white"/>
</mask>
<g mask="url(#mask7_5_2558)">
<path d="M8.06134 -3.23451L-11.1042 28.3025L27.4914 47.2388L46.6582 15.7028L8.06134 -3.23451Z" fill="white"/>
</g>
</g>
</g>
</g>
<path d="M13.4999 23.0329H16.2346C16.1761 23.1533 16.1346 23.2639 16.1127 23.3658C16.0932 23.4654 16.0835 23.565 16.0835 23.6636C16.0835 23.9176 16.1712 24.1486 16.3467 24.3556C16.5222 24.5604 16.7464 24.7618 17.0194 24.96C17.2948 25.1593 17.5873 25.3706 17.8968 25.5951C18.2051 25.8206 18.4976 26.0802 18.7742 26.3747C19.0533 26.6703 19.2812 27.0207 19.4567 27.4259C19.6322 27.8288 19.7199 28.3062 19.7199 28.8581C19.7199 29.2939 19.6127 29.7012 19.3982 30.08C19.1861 30.4567 18.9034 30.7885 18.55 31.0743C18.1954 31.3579 17.8042 31.5801 17.3752 31.74C16.9463 31.901 16.5149 31.9809 16.0835 31.9809H12.9979V29.9618H15.1719C15.3888 29.9618 15.6277 29.9202 15.8885 29.8348C16.1517 29.7472 16.3759 29.6234 16.5612 29.4625C16.7488 29.3026 16.8439 29.1121 16.8439 28.8931C16.8439 28.5493 16.7574 28.2493 16.5855 27.9952C16.4162 27.7412 16.198 27.5124 15.9324 27.3076C15.6655 27.1007 15.3827 26.8948 15.0842 26.69C14.7844 26.4831 14.5017 26.2597 14.236 26.0199C13.9691 25.7812 13.7498 25.502 13.5779 25.1834C13.4085 24.8658 13.3245 24.4903 13.3245 24.0578C13.3245 23.7577 13.383 23.4161 13.4999 23.0329Z" fill="white"/>
<path d="M26.5766 29.9618H20.0691V27.0623C20.0691 26.4732 20.1958 25.9192 20.4493 25.4024C20.7028 24.8856 21.0562 24.4333 21.512 24.0446C21.9665 23.657 22.4918 23.3515 23.0865 23.1292C23.6811 22.9081 24.3197 22.7964 25.0022 22.7964C25.6773 22.7964 26.311 22.9081 26.9032 23.1292C27.4943 23.3515 28.0146 23.6592 28.4631 24.0534C28.914 24.4454 29.2674 24.8987 29.5209 25.4155C29.7744 25.9301 29.9011 26.4831 29.9011 27.0755V34H27.1762V26.9528C27.1762 26.5565 27.0787 26.1973 26.8837 25.8754C26.6888 25.5546 26.428 25.2994 26.1038 25.1089C25.7784 24.9162 25.4165 24.8199 25.0168 24.8199C24.6073 24.8199 24.2332 24.914 23.8956 25.1002C23.5605 25.2874 23.2924 25.5382 23.0913 25.8535C22.8927 26.1667 22.794 26.5138 22.794 26.8959V27.9383H26.5766V29.9618Z" fill="white"/>
<path d="M34.2865 23.0329H38.9222V25.0564H34.9738C34.6813 25.0564 34.4108 25.1308 34.1646 25.2797C33.9209 25.4287 33.7271 25.629 33.5845 25.8798C33.4444 26.1316 33.3749 26.4054 33.3749 26.7032V27.4565H38.9075L38.9222 29.4756H33.3749V34H30.65V26.5718C30.65 26.1141 30.739 25.6739 30.9181 25.2535C31.096 24.8308 31.3495 24.452 31.6786 24.1191C32.01 23.7862 32.3951 23.5223 32.8338 23.3263C33.275 23.1314 33.76 23.0329 34.2865 23.0329Z" fill="white"/>
<path d="M39.5946 23.0329H46.1801C46.67 23.0329 47.1258 23.127 47.545 23.3132C47.9667 23.5004 48.3371 23.7501 48.6564 24.0621C48.9782 24.372 49.228 24.7224 49.4071 25.1133C49.585 25.502 49.6752 25.8973 49.6752 26.3002C49.6752 26.6977 49.5923 27.0952 49.4266 27.4916C49.2609 27.889 49.0232 28.235 48.7149 28.5296C48.4054 28.8252 48.0386 29.0245 47.6133 29.1296C48.2299 29.3836 48.6528 29.7143 48.8807 30.1195C49.111 30.5224 49.2268 30.9681 49.2268 31.4553V34H46.5019V31.6349C46.5019 30.5399 45.9608 29.9924 44.8786 29.9924H42.9191V27.9733H45.254C45.5099 27.9733 45.7573 27.9076 45.9949 27.7762C46.2313 27.6449 46.4251 27.4718 46.575 27.255C46.7273 27.0393 46.8041 26.7952 46.8041 26.5236C46.8041 26.2258 46.7237 25.9674 46.5652 25.7484C46.4056 25.5272 46.2009 25.3564 45.951 25.2359C45.7037 25.1166 45.4368 25.0564 45.1516 25.0564H42.3195V31.9809H39.5946V23.0329Z" fill="white"/>
<path d="M56.5332 29.9618H50.0256V27.0623C50.0256 26.4732 50.1524 25.9192 50.4059 25.4024C50.6593 24.8856 51.0127 24.4333 51.4685 24.0446C51.9231 23.657 52.4483 23.3515 53.043 23.1292C53.6377 22.9081 54.2763 22.7964 54.9587 22.7964C55.6338 22.7964 56.2675 22.9081 56.8598 23.1292C57.4508 23.3515 57.9712 23.6592 58.4196 24.0534C58.8705 24.4454 59.2239 24.8987 59.4774 25.4155C59.7309 25.9301 59.8576 26.4831 59.8576 27.0755V34H57.1328V26.9528C57.1328 26.5565 57.0353 26.1973 56.8403 25.8754C56.6453 25.5546 56.3845 25.2994 56.0604 25.1089C55.735 24.9162 55.373 24.8199 54.9733 24.8199C54.5639 24.8199 54.1897 24.914 53.8522 25.1002C53.517 25.2874 53.2489 25.5382 53.0479 25.8535C52.8492 26.1667 52.7505 26.5138 52.7505 26.8959V27.9383H56.5332V29.9618Z" fill="white"/>
<path d="M60.6067 23.0329H63.2292V31.9809H60.6067V23.0329ZM67.3775 23.0329H70V34H67.3775V28.915H63.8288V26.8959H67.3775V23.0329Z" fill="white"/>
</svg>
